<svg xmlns="http://www.w3.org/2000/svg" xmlns:xlink="http://www.w3.org/1999/xlink" width="1206" height="391" viewBox="0 0 1206 391">
  <defs>
    <clipPath id="clip-path">
      <rect id="Rectangle_4273" data-name="Rectangle 4273" width="1206" height="376" fill="#fff"/>
    </clipPath>
  </defs>
  <g id="bg-cta" transform="translate(-80 -2928)">
    <rect id="Rectangle_4214" data-name="Rectangle 4214" width="1206" height="391" transform="translate(80 2928)" fill="#1d1f1d"/>
    <g id="Mask_Group_3" data-name="Mask Group 3" transform="translate(80 2943)" opacity="0.04" clip-path="url(#clip-path)">
      <path id="Path_16046" data-name="Path 16046" d="M140.551,157.134q0,24.739-17.263,40.643T75.849,215.584v25.827q0,6.8-5.165,6.8H63.071q-5.165,0-5.165-6.8v-26.1q-26.37-1.9-42.138-13.457T0,175.621q0-11.418,6.117-17.4a20.413,20.413,0,0,1,14.816-5.981A27.258,27.258,0,0,1,36.973,157a35.7,35.7,0,0,1,10.738,11.69q3.942,6.932,7.2,13.865a48.924,48.924,0,0,0,7.476,11.69Q66.605,199,71.771,199q17.4,0,17.4-24.467a28.406,28.406,0,0,0-4.893-16.583A38.743,38.743,0,0,0,71.635,146.4a174.511,174.511,0,0,0-16.991-8.564q-9.243-4.078-18.622-8.971a103.131,103.131,0,0,1-17.127-11.146A46.378,46.378,0,0,1,6.253,101.131Q1.359,90.8,1.359,77.208q0-22.836,16.312-38.332t42.682-17.4V6.525Q60.353,0,65.518,0H73.4q5.165,0,5.165,6.525V21.749q26.1,1.9,41.458,12.777t15.36,25.283q0,10.6-5.845,16.855t-15.9,6.253a20.92,20.92,0,0,1-16.312-7.34A41.842,41.842,0,0,1,88.218,59.4a63.743,63.743,0,0,0-7.2-16.176q-4.622-7.34-11.146-7.34a12.716,12.716,0,0,0-11.282,5.981q-3.942,5.981-3.942,16.583,0,11.146,4.758,19.166a34.822,34.822,0,0,0,12.37,12.505A124.694,124.694,0,0,0,88.49,98.277q9.107,3.67,18.215,8.02a98.567,98.567,0,0,1,16.719,10.059q7.612,5.709,12.37,16.04T140.551,157.134Z" transform="translate(-34 22.884) rotate(-30)" fill="#fff"/>
      <path id="Path_16047" data-name="Path 16047" d="M10.5,26V51.9H-5.206V26h-9.853V14.838h9.853V7.393h-9.853V-3.774h9.853V-28.789H12.475L26.707-3.774h17.9V-28.789h15.71V-3.774h8.922V7.393H60.316v7.444h8.922V26H60.316V51.9H43.457L28.568,26Zm11.6-11.167-4.27-7.444H10.5v7.444Zm15.217,0h7.28V7.393h-11.5Zm7.28,12.7V26h-.876Z" transform="translate(1152.761 106.104)" fill="#fff"/>
      <path id="Path_16048" data-name="Path 16048" d="M102.373,99.5a4.954,4.954,0,0,1,5.568-2.335,4.1,4.1,0,0,1,3.592,4.49q-.539,12.752-11.135,22.45T70.4,133.8q-12.752,0-28.018-9.339a35.45,35.45,0,0,1-23.169,8.262q-9.339,0-14.278-5.029A17.221,17.221,0,0,1,0,115.124a15.928,15.928,0,0,1,5.388-12.392q5.388-4.849,14.368-4.849a50.776,50.776,0,0,1,13.829,1.976,42.365,42.365,0,0,0,.18-4.67,40.076,40.076,0,0,0-3.412-15.625H6.106q-4.31,0-4.31-2.874v-7.9q0-3.053,4.31-3.053H22.63q-3.412-5.388-5.3-8.8a49.179,49.179,0,0,1-3.592-8.8,35.523,35.523,0,0,1-1.706-10.776q0-17.6,13.739-27.479T61.244,0Q79.2,0,91.6,6.645t12.392,18.5a13.852,13.852,0,0,1-3.592,9.339q-3.592,4.131-9.878,4.131A17.477,17.477,0,0,1,80.461,35.92a17.865,17.865,0,0,1-5.927-6.466q-1.976-3.772-3.682-7.543a19.479,19.479,0,0,0-4.67-6.466,10.909,10.909,0,0,0-7.633-2.694q-6.106,0-9.609,5.747t-3.5,15.266q0,13.65,5.747,31.969H77.767q4.31,0,4.31,3.053v7.9q0,2.874-4.31,2.874H54.778a74,74,0,0,1,1.437,14.548,38.674,38.674,0,0,1-2.155,12.213q12.033,3.592,20.834,3.592a45.106,45.106,0,0,0,17.152-3.323Q100.217,103.271,102.373,99.5ZM18.5,122.488q6.645,0,10.956-6.825-8.262-5.388-12.033-5.388-6.466,0-6.466,5.747a5.792,5.792,0,0,0,2.155,4.67A8.132,8.132,0,0,0,18.5,122.488Z" transform="translate(633.953 264.652)" fill="#fff"/>
    </g>
  </g>
</svg>
