<svg xmlns="http://www.w3.org/2000/svg" width="146" height="22" viewBox="0 0 146 22">
  <g id="bw-logo-alt" transform="translate(0 0)">
    <g id="Group_13778" data-name="Group 13778" transform="translate(-336.62 -297.011)">
      <g id="Group_13779" data-name="Group 13779" transform="translate(-0.5 -0.261)">
        <circle id="Ellipse_5610" data-name="Ellipse 5610" cx="7" cy="7" r="7" transform="translate(469.12 297.272)" fill="#f07d22"/>
        <path id="Path_15245" data-name="Path 15245" d="M9.844,18.7l1.085,2.656,2.371-1.4-1.971-2.085,2.542-.086-.514-2.513L10.7,16.325l.514-2.685h-2.8l.514,2.685L6.274,15.268,5.76,17.781l2.513.114L6.36,19.952l2.371,1.4Z" transform="translate(466.304 286.776)" fill="#fff"/>
      </g>
      <path id="Path_16266" data-name="Path 16266" d="M25.535-13.977q.4,0,.4.345v.086q0,.23-.533.619a2.159,2.159,0,0,0-.764.993L20.607-.733a.736.736,0,0,1-.72.576h-.548a.741.741,0,0,1-.778-.576L15.3-10.925,12.02-.733a.707.707,0,0,1-.72.576h-.375a.8.8,0,0,1-.778-.576l-4.438-11.2a2.6,2.6,0,0,0-.677-.979c-.3-.269-.3-1.065-.014-1.065H8.648q.4,0,.4.345v.086q0,.2-.288.374a1.6,1.6,0,0,0-.49.461.884.884,0,0,0-.029.806L11.53-2.749l3.4-10.71q.115-.461.49-.461l.951-.029q.346,0,.49.461L20.175-2.633l3.2-9.1a.887.887,0,0,0-.058-.893,2.151,2.151,0,0,0-.62-.518q-.36-.2-.36-.4v-.086q0-.345.432-.345ZM38.619-2.461a1.769,1.769,0,0,0,.317.936,1.043,1.043,0,0,0,.548.4A2.531,2.531,0,0,1,40-.935a.369.369,0,0,1,.231.345q0,.6-1.844.6a2.447,2.447,0,0,1-1.527-.389,2.076,2.076,0,0,1-.576-1.512Q35.189.131,32.135.131a6.132,6.132,0,0,1-3.89-1.152,3.833,3.833,0,0,1-1.47-3.2A3.639,3.639,0,0,1,28.23-7.355a6.156,6.156,0,0,1,3.818-1.123,5.017,5.017,0,0,1,3.545,1.152L35.535-8.1a9.391,9.391,0,0,0-1.066-3.944,2.717,2.717,0,0,0-2.478-1.3,2.631,2.631,0,0,0-1.671.518,2.784,2.784,0,0,0-.908,1.123,6.232,6.232,0,0,1-.591,1.123.978.978,0,0,1-.807.518,1.142,1.142,0,0,1-.821-.288,1.022,1.022,0,0,1-.3-.777A2.686,2.686,0,0,1,28.316-13.3a6.432,6.432,0,0,1,3.674-.965,5.613,5.613,0,0,1,4.193,1.6A7.188,7.188,0,0,1,38.042-8.19Zm-5.85,1.67A3.1,3.1,0,0,0,35.074-1.7a2.9,2.9,0,0,0,.836-2.26l-.115-1.3a2.769,2.769,0,0,0-1.081-1.67,3.4,3.4,0,0,0-2.089-.633,3.427,3.427,0,0,0-2.392.835,2.779,2.779,0,0,0-.922,2.159,3.89,3.89,0,0,0,.965,2.692A3.19,3.19,0,0,0,32.769-.791ZM54.123-13.977q.432,0,.432.317v.086q0,.259-.634.691a2.18,2.18,0,0,0-.836.921L48.532-.733a.783.783,0,0,1-.749.576h-.893a.833.833,0,0,1-.778-.576L40.953-11.962a2.8,2.8,0,0,0-.735-.921q-.5-.432-.5-.691v-.086q0-.317.432-.317h4.006q.4,0,.4.345v.086q0,.115-.49.59a.906.906,0,0,0-.288,1.022L47.84-1.971l3.948-9.7a1.057,1.057,0,0,0,.043-.777.94.94,0,0,0-.36-.461q-.231-.144-.461-.3a.429.429,0,0,1-.231-.331v-.086q0-.345.432-.345Zm12.593,9.76a.486.486,0,0,1,.548-.245q.346.072.288.475a5.107,5.107,0,0,1-1.844,2.822A5.981,5.981,0,0,1,61.7.131a6.313,6.313,0,0,1-4.769-2.015,7.37,7.37,0,0,1-1.916-5.3,6.988,6.988,0,0,1,1.96-5.053,6.462,6.462,0,0,1,4.841-2.03,5.618,5.618,0,0,1,3.9,1.31A3.9,3.9,0,0,1,67.177-10a1.718,1.718,0,0,1-1.354,1.7L57.84-5.685a5.5,5.5,0,0,0,1.743,2.922A4.534,4.534,0,0,0,62.6-1.712,4.155,4.155,0,0,0,66.716-4.217Zm-5.331-9.127a3.282,3.282,0,0,0-2.8,1.5A6.29,6.29,0,0,0,57.523-8.1a7.983,7.983,0,0,0,.115,1.468l6.426-2.3a1.019,1.019,0,0,0,.692-1.008,3.488,3.488,0,0,0-.994-2.246A3.042,3.042,0,0,0,61.385-13.344Z" transform="translate(405.06 318.881)" fill="#fff"/>
      <path id="Path_16267" data-name="Path 16267" d="M-60.054-14.265a6.532,6.532,0,0,1,4.712,1.915A6.719,6.719,0,0,1-53.368-7.3a7.536,7.536,0,0,1-1.945,5.326,6.186,6.186,0,0,1-4.712,2.1,5.13,5.13,0,0,1-4.092-1.814l.029,1.036q0,.547-.576.547l-3.112-.058q-.519,0-.519-.4V-.647q0-.23.548-.763A1.6,1.6,0,0,0-67.2-2.576V-17.691a1.319,1.319,0,0,0-.3-.878,3.535,3.535,0,0,0-.62-.59.63.63,0,0,1-.317-.489v-.086q0-.317.576-.576l2.968-1.411a.882.882,0,0,1,.749-.1q.288.13.288.59v8.493A4.875,4.875,0,0,1-60.054-14.265Zm-.375,13.3a3.1,3.1,0,0,0,2.694-1.382,6.719,6.719,0,0,0,.965-3.887,9.754,9.754,0,0,0-1.138-5.024,3.391,3.391,0,0,0-2.983-1.915,2.771,2.771,0,0,0-2.089.936,3.256,3.256,0,0,0-.879,2.318v4.866a4.291,4.291,0,0,0,1.052,2.836A3.066,3.066,0,0,0-60.429-.964Zm16.858-13.3a2.662,2.662,0,0,1,1.945.691,2.318,2.318,0,0,1,.706,1.727q0,1.814-1.5,1.814a1.326,1.326,0,0,1-.98-.345,1.5,1.5,0,0,1-.432-.777,1.6,1.6,0,0,0-.4-.777,1.115,1.115,0,0,0-.865-.345,1.607,1.607,0,0,0-1.47,1.036,5.619,5.619,0,0,0-.519,2.534v6.161a1.393,1.393,0,0,0,.663,1.123q.663.489.663.749V-.56q0,.4-.605.4h-4.467q-.605,0-.605-.4V-.676q0-.259.548-.749a1.472,1.472,0,0,0,.548-1.123v-7.745a1.4,1.4,0,0,0-.62-1.137q-.62-.475-.62-.734v-.086q0-.317.519-.6l2.824-1.3q.836-.4.836.489v2.246A3.775,3.775,0,0,1-43.57-14.265Zm15.1,9.875a.528.528,0,0,1,.591-.23.431.431,0,0,1,.331.518,4.838,4.838,0,0,1-1.787,2.879A5.97,5.97,0,0,1-33.4.131a6.505,6.505,0,0,1-4.885-2.015,7.307,7.307,0,0,1-1.945-5.3,6.894,6.894,0,0,1,2-5.067,6.625,6.625,0,0,1,4.885-2.015,5.7,5.7,0,0,1,3.991,1.281,3.9,3.9,0,0,1,1.4,2.951,1.984,1.984,0,0,1-1.47,2.015l-6.974,2.562a5,5,0,0,0,1.643,2.332,4.154,4.154,0,0,0,2.594.835,4.25,4.25,0,0,0,2.262-.59A3.708,3.708,0,0,0-28.47-4.39Zm-5.447-8.781a2.451,2.451,0,0,0-2.161,1.3,6.354,6.354,0,0,0-.807,3.4,9.379,9.379,0,0,0,.173,1.843l4.784-2.073a1.226,1.226,0,0,0,.749-1.209,3.709,3.709,0,0,0-.792-2.145A2.333,2.333,0,0,0-33.916-13.171ZM-13.484-2.749a1.9,1.9,0,0,0,.331.993,1.186,1.186,0,0,0,.548.446,1.92,1.92,0,0,1,.49.23A.434.434,0,0,1-11.9-.7q0,.72-2.334.72a3.077,3.077,0,0,1-1.686-.36,1.728,1.728,0,0,1-.62-1.368A4.347,4.347,0,0,1-20.545.131a6.249,6.249,0,0,1-3.9-1.137,3.809,3.809,0,0,1-1.484-3.21A3.694,3.694,0,0,1-24.464-7.4a6.067,6.067,0,0,1,3.775-1.137,5.322,5.322,0,0,1,3.343.979l-.058-.576a10.623,10.623,0,0,0-.922-3.858,2.229,2.229,0,0,0-2.1-1.209,2.1,2.1,0,0,0-1.484.547,2.874,2.874,0,0,0-.807,1.195,4.285,4.285,0,0,1-.62,1.195,1.212,1.212,0,0,1-1.009.547,1.447,1.447,0,0,1-1.023-.36,1.25,1.25,0,0,1-.389-.965,2.678,2.678,0,0,1,1.513-2.3,7.234,7.234,0,0,1,3.818-.921,6.075,6.075,0,0,1,4.38,1.6,6.924,6.924,0,0,1,1.988,4.391ZM-19.594-.964a2.4,2.4,0,0,0,1.916-.864A2.828,2.828,0,0,0-17-3.871l-.086-.893a2.882,2.882,0,0,0-.836-1.958,2.634,2.634,0,0,0-1.9-.72,2.624,2.624,0,0,0-1.96.763,2.811,2.811,0,0,0-.749,2.059,4.117,4.117,0,0,0,.821,2.591A2.557,2.557,0,0,0-19.594-.964ZM2.654-2.547A1.559,1.559,0,0,0,3.2-1.4c.365.345.384,1.238.058,1.238h-3A.531.531,0,0,1-.314-.7L-.4-1.712A4.83,4.83,0,0,1-4.435.131,6.444,6.444,0,0,1-9.176-1.856,7.109,7.109,0,0,1-11.15-7.1,7.115,7.115,0,0,1-9.2-12.25a6.438,6.438,0,0,1,4.827-2.015A5.237,5.237,0,0,1-.6-12.8V-18.21A1.236,1.236,0,0,0-.934-19.1a3.82,3.82,0,0,0-.663-.561.594.594,0,0,1-.331-.475V-20.2q0-.374.519-.576l3.055-.979q1.009-.345,1.009.518ZM-3.657-.964a2.866,2.866,0,0,0,2.118-.979A3.8,3.8,0,0,0-.6-4.678V-9.284a3.918,3.918,0,0,0-1.1-2.663,3.345,3.345,0,0,0-2.565-1.224,3.083,3.083,0,0,0-2.594,1.31A5.994,5.994,0,0,0-7.865-8.277,10.172,10.172,0,0,0-6.755-3.123,3.553,3.553,0,0,0-3.657-.964Z" transform="translate(405.06 318.881)" fill="#d1640e"/>
    </g>
  </g>
</svg>
