<svg id="ic-bitgo" xmlns="http://www.w3.org/2000/svg" width="66.358" height="17.125" viewBox="0 0 66.358 17.125">
  <path id="Path_16036" data-name="Path 16036" d="M55.382,53.125s7.382-2.491,7.382-11.639V38.192a.676.676,0,0,0-.638-.673A17.7,17.7,0,0,1,55.382,36a17.583,17.583,0,0,1-6.744,1.515.683.683,0,0,0-.638.677v3.293C48,50.634,55.382,53.125,55.382,53.125Z" transform="translate(-48 -36)" fill="#494b4a"/>
  <path id="Path_16037" data-name="Path 16037" d="M99.062,80.1c-.09-.991-.953-1.332-2.049-1.433l0-1.385-.849,0,0,1.34c-.225,0-.463,0-.692,0V77.272l-.858,0,0,1.376c-.184,0-1.716,0-1.716,0v.88H94l0,4.424-.953,0-.009,1.009,1.546,0,0,1.394.845,0,.009-1.385.678.013,0,1.371h.858l0-1.385c1.429-.071,2.435-.42,2.57-1.739a1.424,1.424,0,0,0-1.209-1.739A1.3,1.3,0,0,0,99.062,80.1Zm-1.209,2.964c-.009,1.04-1.8.911-2.377.907l0-1.845C96.051,82.129,97.862,81.979,97.853,83.063Zm-.377-2.6c-.009.947-1.5.827-1.977.823l0-1.672C95.971,79.612,97.48,79.475,97.476,80.462Z" transform="translate(-88.696 -73.399)" fill="#fff"/>
  <path id="Path_16038" data-name="Path 16038" d="M260.489,65.782a3.539,3.539,0,0,1-.436,1.832,3.441,3.441,0,0,1-1.159,1.191,5.079,5.079,0,0,1-1.644.649,8.9,8.9,0,0,1-1.892.2H250v-13.3h5.356a8.263,8.263,0,0,1,1.6.16,4.761,4.761,0,0,1,1.483.547,3.106,3.106,0,0,1,1.083,1.045,3.07,3.07,0,0,1,.418,1.672,2.751,2.751,0,0,1-.607,1.832,3.39,3.39,0,0,1-1.6,1.045v.036a3.7,3.7,0,0,1,1.074.347,3.024,3.024,0,0,1,.872.649,2.969,2.969,0,0,1,.589.92A3.016,3.016,0,0,1,260.489,65.782ZM256.8,60.2a1.071,1.071,0,0,0-.521-.987,3.068,3.068,0,0,0-1.55-.311h-1.6v2.743h1.748a2.376,2.376,0,0,0,1.415-.365A1.248,1.248,0,0,0,256.8,60.2Zm.436,5.281a1.168,1.168,0,0,0-.629-1.147,3.7,3.7,0,0,0-1.671-.32h-1.806v3.045h1.824a4.858,4.858,0,0,0,.786-.067,2.409,2.409,0,0,0,.741-.236,1.4,1.4,0,0,0,.539-.48A1.325,1.325,0,0,0,257.241,65.484Z" transform="translate(-231.159 -54.439)" fill="#494b4a"/>
  <path id="Path_16039" data-name="Path 16039" d="M373.273,50.187a1.574,1.574,0,0,1-.144.667,1.593,1.593,0,0,1-.382.534,1.694,1.694,0,0,1-.571.356,1.841,1.841,0,0,1-.692.133,1.743,1.743,0,0,1-1.272-.5,1.64,1.64,0,0,1-.377-1.841,1.477,1.477,0,0,1,.382-.534,2.043,2.043,0,0,1,.571-.365,1.746,1.746,0,0,1,.7-.142,1.824,1.824,0,0,1,.692.133,1.766,1.766,0,0,1,.571.356,1.842,1.842,0,0,1,.382.534A1.572,1.572,0,0,1,373.273,50.187ZM369.93,62.539V53.176h3.114v9.363Z" transform="translate(-339.673 -47.324)" fill="#494b4a"/>
  <path id="Path_16040" data-name="Path 16040" d="M421.47,77.148V80.77a1.639,1.639,0,0,0,.256,1,1.089,1.089,0,0,0,.921.332,3.752,3.752,0,0,0,.485-.036,1.766,1.766,0,0,0,.427-.112l.036,2.278a4.746,4.746,0,0,1-.818.2,5.643,5.643,0,0,1-.988.085,4.682,4.682,0,0,1-1.6-.238,2.406,2.406,0,0,1-1.034-.687,2.724,2.724,0,0,1-.562-1.065,5.247,5.247,0,0,1-.171-1.379v-4H416.91V74.83h1.5V72.34h3.06V74.83h2.224v2.318Z" transform="translate(-382.486 -69.072)" fill="#494b4a"/>
  <path id="Path_16041" data-name="Path 16041" d="M510.155,66.161a12.2,12.2,0,0,1-2.88.32,8.447,8.447,0,0,1-2.974-.507,6.842,6.842,0,0,1-2.336-1.428,6.478,6.478,0,0,1-1.528-2.211,7.733,7.733,0,0,1,.009-5.765A6.447,6.447,0,0,1,502,54.361a6.778,6.778,0,0,1,2.318-1.4,8.267,8.267,0,0,1,2.867-.489,8.893,8.893,0,0,1,2.966.48,6.11,6.11,0,0,1,2.224,1.29l-2.053,2.313a3.573,3.573,0,0,0-1.254-.894,4.31,4.31,0,0,0-1.766-.347,3.911,3.911,0,0,0-1.577.311,3.771,3.771,0,0,0-1.254.863,3.937,3.937,0,0,0-.827,1.317,4.546,4.546,0,0,0-.3,1.664,5.24,5.24,0,0,0,.265,1.695,3.613,3.613,0,0,0,.786,1.325,3.541,3.541,0,0,0,1.29.863,4.613,4.613,0,0,0,1.757.311,6.479,6.479,0,0,0,1.083-.085,4.111,4.111,0,0,0,.948-.271V60.882h-2.566V58.288h5.549v7.05A10.463,10.463,0,0,1,510.155,66.161Z" transform="translate(-457.742 -50.925)" fill="#494b4a"/>
  <path id="Path_16042" data-name="Path 16042" d="M657.283,100.606a5.1,5.1,0,0,1-.418,2.1,4.682,4.682,0,0,1-1.141,1.6,5.182,5.182,0,0,1-1.671,1.015,5.635,5.635,0,0,1-2.031.359,5.735,5.735,0,0,1-2.022-.359,5.162,5.162,0,0,1-1.671-1.015,4.765,4.765,0,0,1-1.132-1.6,5.118,5.118,0,0,1-.418-2.1,5.045,5.045,0,0,1,.418-2.089,4.691,4.691,0,0,1,1.132-1.577A4.949,4.949,0,0,1,650,95.951a6.183,6.183,0,0,1,4.053,0,5.039,5.039,0,0,1,1.671.988,4.653,4.653,0,0,1,1.141,1.577A5.042,5.042,0,0,1,657.283,100.606Zm-3,0a2.652,2.652,0,0,0-.153-.894,2.39,2.39,0,0,0-.436-.768,2.212,2.212,0,0,0-.7-.539,2.142,2.142,0,0,0-.97-.207,2.2,2.2,0,0,0-.97.207,2.126,2.126,0,0,0-.692.539,2.271,2.271,0,0,0-.418.768,2.85,2.85,0,0,0,0,1.788,2.428,2.428,0,0,0,.427.786,2.093,2.093,0,0,0,.7.562,2.144,2.144,0,0,0,.97.211,2.069,2.069,0,0,0,1.671-.773,2.475,2.475,0,0,0,.427-.786A2.76,2.76,0,0,0,654.282,100.606Z" transform="translate(-590.925 -90.158)" fill="#494b4a"/>
</svg>
