<svg xmlns="http://www.w3.org/2000/svg" width="42" height="42" viewBox="0 0 42 42">
  <g id="ic-coaching" transform="translate(-164 -1230)">
    <rect id="Rectangle_4346" data-name="Rectangle 4346" width="42" height="42" rx="21" transform="translate(164 1230)" fill="#97f022" opacity="0.1"/>
    <g id="SVGRepo_iconCarrier" transform="translate(172.996 1239)">
      <path id="Path_16391" data-name="Path 16391" d="M17.529,7.77a.739.739,0,0,0-.21,0,2.9,2.9,0,1,1,.21,0Z" fill="#292d32" opacity="0.4"/>
      <path id="Path_16392" data-name="Path 16392" d="M20.79,14.7a6.209,6.209,0,0,1-4.14.84,6.531,6.531,0,0,0,.59-2.69,6.145,6.145,0,0,0-.64-2.78,6.237,6.237,0,0,1,4.18.83A2.119,2.119,0,0,1,20.79,14.7Z" fill="#292d32" opacity="0.4"/>
      <path id="Path_16393" data-name="Path 16393" d="M6.44,7.77a.739.739,0,0,1,.21,0,2.9,2.9,0,1,0-.21,0Z" fill="#292d32" opacity="0.4"/>
      <path id="Path_16394" data-name="Path 16394" d="M6.549,12.85a6.512,6.512,0,0,0,.59,2.72,6.179,6.179,0,0,1-3.96-.86,2.124,2.124,0,0,1,0-3.81,6.141,6.141,0,0,1,4-.85A6.358,6.358,0,0,0,6.549,12.85Z" fill="#292d32" opacity="0.4"/>
      <path id="Path_16395" data-name="Path 16395" d="M12.121,15.87a1.129,1.129,0,0,0-.26,0,3.44,3.44,0,1,1,.26,0Z" fill="#292d32"/>
      <path id="Path_16396" data-name="Path 16396" d="M8.871,17.94a2.053,2.053,0,0,0,0,3.67,6.111,6.111,0,0,0,6.26,0,2.053,2.053,0,0,0,0-3.67A6.111,6.111,0,0,0,8.871,17.94Z" fill="#292d32"/>
    </g>
  </g>
</svg>
