<svg xmlns="http://www.w3.org/2000/svg" width="42" height="42" viewBox="0 0 42 42">
  <g id="ic-cart-buy" transform="translate(-322 -1230)">
    <rect id="Rectangle_4346" data-name="Rectangle 4346" width="42" height="42" rx="21" transform="translate(322 1230)" fill="#d1640e" opacity="0.1"/>
    <g id="SVGRepo_iconCarrier" transform="translate(331.458 1239.375)">
      <path id="Path_16388" data-name="Path 16388" d="M2.084,2.751a.75.75,0,0,1,.956-.459l.3.106A15.175,15.175,0,0,1,4.894,3,2.706,2.706,0,0,1,6,3.9a2.869,2.869,0,0,1,.452,1.362c.024.222.037.468.043.738H17.131c1.685,0,3.2,0,3.646.577s.27,1.447-.077,3.186l-.5,2.425c-.315,1.529-.473,2.293-1.024,2.743s-1.332.45-2.893.45h-5.3c-2.789,0-4.183,0-5.05-.914S5,12.582,5,9.64v-2.6C5,6.3,5,5.8,4.958,5.423a1.406,1.406,0,0,0-.2-.677,1.236,1.236,0,0,0-.525-.4A14.5,14.5,0,0,0,2.8,3.8l-.261-.092A.75.75,0,0,1,2.084,2.751Z" fill="#f07d22"/>
      <path id="Path_16389" data-name="Path 16389" d="M7.5,18A1.5,1.5,0,1,1,6,19.5,1.5,1.5,0,0,1,7.5,18Z" fill="#f07d22"/>
      <path id="Path_16390" data-name="Path 16390" d="M16.5,18A1.5,1.5,0,1,1,15,19.5,1.5,1.5,0,0,1,16.5,18Z" fill="#f07d22"/>
    </g>
  </g>
</svg>
