<svg xmlns="http://www.w3.org/2000/svg" width="109.17" height="17.125" viewBox="0 0 109.17 17.125">
  <g id="ic-flutterwave" transform="translate(0)">
    <rect id="Rectangle_1945" data-name="Rectangle 1945" width="1.919" height="9.808" transform="translate(33.411 4.002)" fill="#494b4a"/>
    <path id="Path_14387" data-name="Path 14387" d="M363.529,110.047a1.833,1.833,0,0,1-2.044,1.962,1.742,1.742,0,0,1-1.947-1.893v-3.5H357.62v3.938c0,1.961,1.237,3.107,3.3,3.107a3.121,3.121,0,0,0,2.5-1.008h.112l.167.871h1.765V106.62h-1.931Z" transform="translate(-320.774 -99.717)" fill="#494b4a"/>
    <path id="Path_14388" data-name="Path 14388" d="M533.936,111.129c-1.4,0-2.2-.635-2.321-1.561H537.7a3.981,3.981,0,0,0,.042-.581c-.013-2.485-1.906-3.537-3.93-3.537-2.35,0-4.116,1.4-4.116,3.648,0,2.141,1.7,3.536,4.241,3.536,2.128,0,3.545-.938,3.838-2.376h-1.9C535.646,110.825,534.965,111.129,533.936,111.129Zm-.119-4.172c1.224,0,1.933.538,2.045,1.3h-4.205c.18-.731.89-1.3,2.154-1.3Z" transform="translate(-472.361 -98.685)" fill="#494b4a"/>
    <path id="Path_14389" data-name="Path 14389" d="M609.513,107.585h-.119l-.181-1H607.47V113.5h1.919v-2.97a1.943,1.943,0,0,1,2.225-2.086,3.894,3.894,0,0,1,.784.069v-1.921h-.268A2.91,2.91,0,0,0,609.513,107.585Z" transform="translate(-540.869 -99.69)" fill="#494b4a"/>
    <path id="Path_14390" data-name="Path 14390" d="M662.118,111.372h-.111l-1.641-4.324h-1.974l-1.613,4.311h-.125l-1.529-4.739H653.22l2.35,6.908h2.086l1.669-4.408h.111l1.641,4.408h2.1l2.35-6.908H663.62Z" transform="translate(-581.17 -99.717)" fill="#494b4a"/>
    <path id="Path_14391" data-name="Path 14391" d="M764.82,110.494v-2.312c0-1.879-1.6-2.722-3.589-2.722-2.113,0-3.433,1-3.614,2.485h1.919c.139-.65.7-1.008,1.7-1.008s1.668.373,1.668,1.132v.176l-3.129.237c-1.446.111-2.5.747-2.5,2.1,0,1.4,1.21,2.058,2.989,2.058a3.59,3.59,0,0,0,2.847-1h.1a1.547,1.547,0,0,0,1.577.86h.806V111.1H765.4C765,111.1,764.82,110.9,764.82,110.494Zm-1.92-.732c0,1.092-1.31,1.451-2.433,1.451-.765,0-1.265-.193-1.265-.718,0-.473.431-.7,1.072-.76l2.627-.193Z" transform="translate(-672.829 -98.694)" fill="#494b4a"/>
    <path id="Path_14392" data-name="Path 14392" d="M830.652,106.62l-2.239,5h-.125l-2.266-5H823.95l3.239,6.908h2.295l3.225-6.908Z" transform="translate(-731.568 -99.717)" fill="#494b4a"/>
    <path id="Path_14393" data-name="Path 14393" d="M903.272,110.258c-.238.567-.918.871-1.947.871-1.4,0-2.2-.635-2.321-1.561h6.089a3.989,3.989,0,0,0,.042-.581c-.013-2.485-1.905-3.537-3.93-3.537-2.35,0-4.115,1.4-4.115,3.648,0,2.141,1.7,3.536,4.24,3.536,2.128,0,3.545-.938,3.838-2.376Zm-2.072-3.3c1.224,0,1.933.538,2.045,1.3h-4.2c.182-.731.89-1.3,2.154-1.3Z" transform="translate(-795.997 -98.685)" fill="#494b4a"/>
    <path id="Path_14394" data-name="Path 14394" d="M276.067,84.51c0-.608.431-.87.987-.87a2.9,2.9,0,0,1,.765.11l.32-1.382a4.4,4.4,0,0,0-1.446-.248,2.268,2.268,0,0,0-2.558,2.293v.606H272.48v1.513h1.655v5.395h1.932v-5.4h2.163V85.019h-2.163Z" transform="translate(-245.774 -78.116)" fill="#494b4a"/>
    <path id="Path_14395" data-name="Path 14395" d="M433.876,90.16H432.09l-.1,1.948h-1.51v1.513h1.474v3.406c0,1.16.6,2.13,2.382,2.13a6.333,6.333,0,0,0,1.377-.151V97.551a4.109,4.109,0,0,1-.793.1c-.959,0-1.042-.538-1.042-.954V93.618h1.905v-1.51h-1.907Z" transform="translate(-384.957 -85.204)" fill="#494b4a"/>
    <path id="Path_14396" data-name="Path 14396" d="M484.484,90.16H482.7l-.1,1.948H481.09v1.513h1.474v3.406c0,1.16.6,2.13,2.382,2.13A6.33,6.33,0,0,0,486.319,99V97.551a4.107,4.107,0,0,1-.793.1c-.959,0-1.042-.538-1.042-.954V93.618H486.4v-1.51h-1.911Z" transform="translate(-429.54 -85.204)" fill="#494b4a"/>
    <path id="Path_14397" data-name="Path 14397" d="M48.23,59.506a3.728,3.728,0,0,1,1.011-2.736l1.191,1.183c-1.325,1.312-.168,5.392,3.606,9.146s7.883,4.9,9.207,3.588l1.191,1.183c-2.234,2.22-7.323.645-11.583-3.589C49.9,65.344,48.23,62.012,48.23,59.506Z" transform="translate(-48.23 -55.765)" fill="#494b4a"/>
    <path id="Path_14398" data-name="Path 14398" d="M90.915,73a3.785,3.785,0,0,1-2.755-1l1.191-1.183c1.323,1.315,5.429.164,9.207-3.588s4.933-7.832,3.61-9.147l1.191-1.183c2.235,2.22.649,7.276-3.612,11.509C96.791,71.339,93.437,73,90.915,73Z" transform="translate(-83.405 -55.871)" fill="#494b4a"/>
    <path id="Path_14399" data-name="Path 14399" d="M71.834,59.236a17.188,17.188,0,0,0-4.159-6.224c-4.26-4.234-9.349-5.81-11.583-3.589h0c-.158.159-.021.55.307.877s.723.461.881.3c1.324-1.315,5.431-.164,9.207,3.589a15.518,15.518,0,0,1,3.76,5.591c.562,1.608.507,2.905-.148,3.556h0c-.16.157-.021.55.306.876s.723.463.882.3C72.433,63.382,72.628,61.5,71.834,59.236Z" transform="translate(-55.098 -48.401)" fill="#494b4a"/>
    <path id="Path_14400" data-name="Path 14400" d="M95.881,49.3c-1.147-1.14-3.036-1.332-5.32-.543A17.322,17.322,0,0,0,84.3,52.889c-4.26,4.233-5.846,9.289-3.612,11.51h0c.16.157.554.021.882-.3s.466-.718.306-.877c-1.327-1.315-.166-5.395,3.612-9.148a15.633,15.633,0,0,1,5.627-3.736c1.618-.557,2.924-.5,3.58.147h0c.158.157.554.021.881-.305S96.039,49.459,95.881,49.3Z" transform="translate(-75.929 -48.28)" fill="#494b4a"/>
  </g>
</svg>
