<svg xmlns="http://www.w3.org/2000/svg" width="35" height="24" viewBox="0 0 35 24">
  <g id="ic-nav-menu-b" transform="translate(-1252 -31)">
    <line id="Line_723" data-name="Line 723" x2="33" transform="translate(1253 46)" fill="none" stroke="#fff" stroke-linecap="round" stroke-width="2"/>
    <line id="Line_724" data-name="Line 724" x2="31" transform="translate(1255 54)" fill="none" stroke="#fff" stroke-linecap="round" stroke-width="2"/>
    <path id="Path_14737" data-name="Path 14737" d="M-7.859,0h1.3l-.22-6.875H-8.618l-1.771,5.412L-12.16-6.875h-1.859L-14.25,0h1.265l.066-5.511,1.8,5.412h1.408l1.793-5.412ZM-.468,0V-1.133H-3.834V-2.882h2.761V-4.015H-3.834V-5.742H-.468V-6.875H-5.154V0ZM5.549-1.87l-3.256-5H.83V0H2.106V-4.994L5.4.066h1.43V-6.875H5.549Zm8.558-.858V-6.875H12.776v4.147c0,1.188-.539,1.716-1.5,1.716-1.067,0-1.562-.638-1.562-1.771V-6.875H8.376v4.268A2.576,2.576,0,0,0,11.236.165,2.609,2.609,0,0,0,14.107-2.728Z" transform="translate(1270.25 37.875)" fill="#fff"/>
  </g>
</svg>
