<svg xmlns="http://www.w3.org/2000/svg" width="42" height="42" viewBox="0 0 42 42">
  <g id="ic-sell-light" transform="translate(-322 -1230)">
    <rect id="Rectangle_4346" data-name="Rectangle 4346" width="42" height="42" rx="21" transform="translate(322 1230)" fill="#ecde1a" opacity="0.1"/>
    <g id="business_idea" data-name="business idea" transform="translate(337 1242.997)">
      <g id="Group_12860" data-name="Group 12860" transform="translate(2.667 12)" opacity="0.35">
        <path id="Path_15271" data-name="Path 15271" d="M7,18v2a2,2,0,0,0,2,2h2.667a2,2,0,0,0,2-2V18Z" transform="translate(-7 -18)" fill="#1e1f21"/>
      </g>
      <g id="Group_12861" data-name="Group 12861">
        <path id="Path_15272" data-name="Path 15272" d="M5.6,12H12.4a3.644,3.644,0,0,1,.951-1.866,6,6,0,1,0-8.695,0A3.649,3.649,0,0,1,5.6,12ZM9,6.667a2,2,0,0,1-.667-3.877V2A.667.667,0,0,1,9.667,2v.667h.667a.667.667,0,1,1,0,1.333H9A.667.667,0,1,0,9,5.333a2,2,0,0,1,.667,3.877V10a.667.667,0,1,1-1.333,0V9.333H7.667A.667.667,0,1,1,7.667,8H9A.667.667,0,0,0,9,6.667Z" transform="translate(-3)" fill="#1e1f21"/>
      </g>
    </g>
  </g>
</svg>
