<svg xmlns="http://www.w3.org/2000/svg" width="42" height="42" viewBox="0 0 42 42">
  <g id="ic-sell-online-courses" transform="translate(-322 -1230)">
    <rect id="Rectangle_4346" data-name="Rectangle 4346" width="42" height="42" rx="21" transform="translate(322 1230)" fill="#494b4a" opacity="0.1"/>
    <g id="SVGRepo_iconCarrier" transform="translate(333 1240.998)">
      <path id="Path_16397" data-name="Path 16397" d="M7.917,2H13.5c.186,0,.329,0,.453.012a2.306,2.306,0,0,1,1.919,1.337H5.544A2.306,2.306,0,0,1,7.464,2.012C7.588,2,7.731,2,7.917,2Z" transform="translate(-0.709)" fill="#1c274c"/>
      <path id="Path_16398" data-name="Path 16398" d="M5.724,4.723A2.423,2.423,0,0,0,3.395,6.286l-.018.056a6.061,6.061,0,0,1,.986-.2,27.627,27.627,0,0,1,3.225-.111H13.1a27.628,27.628,0,0,1,3.225.111,6.06,6.06,0,0,1,.986.2q-.009-.028-.018-.056a2.423,2.423,0,0,0-2.329-1.563Z" transform="translate(-0.275 -0.545)" fill="#1c274c"/>
      <path id="Path_16399" data-name="Path 16399" d="M12.662,7.542H7.338c-2.7,0-4.05,0-4.808.789s-.58,2.009-.223,4.449l.338,2.313c.28,1.913.42,2.87,1.137,3.442s1.776.573,3.894.573h4.647c2.117,0,3.176,0,3.894-.573s.858-1.529,1.137-3.442l.338-2.313c.357-2.439.535-3.659-.223-4.449S15.362,7.542,12.662,7.542Zm-.6,6.6a.77.77,0,0,0,0-1.271L9.368,11.2a.655.655,0,0,0-.968.635V15.18a.655.655,0,0,0,.968.635Z" transform="translate(0 -1.108)" fill="#1c274c" fill-rule="evenodd"/>
    </g>
  </g>
</svg>
