<svg xmlns="http://www.w3.org/2000/svg" width="42" height="42" viewBox="0 0 42 42">
  <g id="ic-sell-software" transform="translate(-164 -1230)">
    <rect id="Rectangle_4346" data-name="Rectangle 4346" width="42" height="42" rx="21" transform="translate(164 1230)" fill="#7d22f0" opacity="0.1"/>
    <g id="SVGRepo_iconCarrier" transform="translate(175 1240.998)">
      <path id="Path_16402" data-name="Path 16402" d="M2.8,2a.8.8,0,0,0-.8.8V8.4a.8.8,0,0,0,.8.8H8.4a.8.8,0,0,0,.8-.8V2.8A.8.8,0,0,0,8.4,2Z"/>
      <path id="Path_16403" data-name="Path 16403" d="M13.8,2a.8.8,0,0,0-.8.8V8.4a.8.8,0,0,0,.8.8h5.6a.8.8,0,0,0,.8-.8V2.8a.8.8,0,0,0-.8-.8Z" transform="translate(-2.2)"/>
      <path id="Path_16404" data-name="Path 16404" d="M13.8,13a.8.8,0,0,0-.8.8v5.6a.8.8,0,0,0,.8.8h5.6a.8.8,0,0,0,.8-.8V13.8a.8.8,0,0,0-.8-.8Z" transform="translate(-2.2 -2.2)"/>
      <path id="Path_16405" data-name="Path 16405" d="M2.8,13a.8.8,0,0,0-.8.8v5.6a.8.8,0,0,0,.8.8H8.4a.8.8,0,0,0,.8-.8V13.8a.8.8,0,0,0-.8-.8Z" transform="translate(0 -2.2)"/>
    </g>
  </g>
</svg>
