<svg xmlns="http://www.w3.org/2000/svg" width="42" height="42" viewBox="0 0 42 42">
  <g id="ic-sell-pdf" transform="translate(-164 -1230)">
    <rect id="Rectangle_4346" data-name="Rectangle 4346" width="42" height="42" rx="21" transform="translate(164 1230)" fill="#874919" opacity="0.1"/>
    <g id="SVGRepo_iconCarrier" transform="translate(133.194 1241.997)">
      <g id="Group_14132" data-name="Group 14132" transform="translate(44.806)">
        <path id="Path_16385" data-name="Path 16385" d="M119.41,297.889c0-.3-.207-.477-.573-.477a1.272,1.272,0,0,0-.3.029v.959a1.149,1.149,0,0,0,.246.019C119.169,298.419,119.41,298.222,119.41,297.889Z" transform="translate(-115.781 -286.309)"/>
        <path id="Path_16386" data-name="Path 16386" d="M194.136,297.681a1.514,1.514,0,0,0-.332.029v2.124a1.332,1.332,0,0,0,.255.015,1.007,1.007,0,0,0,1.1-1.137A.931.931,0,0,0,194.136,297.681Z" transform="translate(-188.241 -286.567)"/>
        <path id="Path_16387" data-name="Path 16387" d="M54.91,0h-7.23a1.919,1.919,0,0,0-1.916,1.916V9h-.187a.772.772,0,0,0-.772.772v4.682a.772.772,0,0,0,.772.772h.187v.858A1.918,1.918,0,0,0,47.681,18h9.864a1.918,1.918,0,0,0,1.915-1.916V4.534ZM46.831,10.617a6.051,6.051,0,0,1,.992-.067,1.557,1.557,0,0,1,.992.26.949.949,0,0,1,.347.751,1.038,1.038,0,0,1-.3.771,1.506,1.506,0,0,1-1.055.342,1.9,1.9,0,0,1-.251-.014v1.161h-.727Zm10.714,6.21H47.681a.743.743,0,0,1-.742-.743v-.858h9.2a.772.772,0,0,0,.772-.772V9.772A.772.772,0,0,0,56.135,9h-9.2V1.916a.743.743,0,0,1,.742-.741l6.791-.007v2.51A1.329,1.329,0,0,0,55.8,5.006L58.259,5l.028,11.085A.743.743,0,0,1,57.545,16.827Zm-7.914-3.021V10.617a6.613,6.613,0,0,1,.992-.067,2.091,2.091,0,0,1,1.33.347A1.437,1.437,0,0,1,52.5,12.12a1.646,1.646,0,0,1-.54,1.315,2.331,2.331,0,0,1-1.5.419A6.356,6.356,0,0,1,49.632,13.806Zm5.258-1.888v.6H53.723v1.306h-.737V10.574h1.985v.6H53.723v.742Z" transform="translate(-44.806)"/>
      </g>
    </g>
  </g>
</svg>
