<svg xmlns="http://www.w3.org/2000/svg" width="42" height="42" viewBox="0 0 42 42">
  <g id="ic-sell-airtime" transform="translate(-322 -1230)">
    <rect id="Rectangle_4346" data-name="Rectangle 4346" width="42" height="42" rx="21" transform="translate(322 1230)" fill="#ce18c2" opacity="0.1"/>
    <g id="smartphone-2" transform="translate(338 1243)">
      <path id="Combined-Shape" d="M4.682,0H10.5a1.818,1.818,0,0,1,1.818,1.818V14.182A1.818,1.818,0,0,1,10.5,16H4.682a1.818,1.818,0,0,1-1.818-1.818V1.818A1.818,1.818,0,0,1,4.682,0ZM7.627,14.743a1.371,1.371,0,1,0-1.371-1.371,1.371,1.371,0,0,0,1.371,1.371Z" transform="translate(-2.864 0)" fill="#1e1f21"/>
    </g>
  </g>
</svg>
