<svg xmlns="http://www.w3.org/2000/svg" width="42" height="42" viewBox="0 0 42 42">
  <g id="ic-sell-cable-tv" transform="translate(-322 -1230)">
    <rect id="Rectangle_4346" data-name="Rectangle 4346" width="42" height="42" rx="21" transform="translate(322 1230)" fill="#15aebf" opacity="0.1"/>
    <g id="Square" transform="translate(335 1243)">
      <path id="Path_15890" data-name="Path 15890" d="M10.457,16H5.543A5.55,5.55,0,0,1,0,10.456V5.542A5.55,5.55,0,0,1,5.544,0h4.914A5.55,5.55,0,0,1,16,5.544v4.914A5.55,5.55,0,0,1,10.457,16ZM5.544,3.329A2.217,2.217,0,0,0,3.329,5.544v4.914a2.217,2.217,0,0,0,2.215,2.215h4.914a2.216,2.216,0,0,0,2.214-2.215V5.544a2.216,2.216,0,0,0-2.215-2.215Z" fill="#1e1f21"/>
    </g>
  </g>
</svg>
