<svg id="ic-squad" xmlns="http://www.w3.org/2000/svg" width="63.16" height="17.125" viewBox="0 0 63.16 17.125">
  <g id="Group_13916" data-name="Group 13916">
    <path id="Path_16270" data-name="Path 16270" d="M42.434,14.129c-2.735,0-4.33-1.147-4.4-3.3h3.028c.109.7.423,1.094,1.359,1.094.808,0,1.175-.314,1.175-.8s-.459-.685-1.778-.872c-2.569-.332-3.652-1.094-3.652-3.112,0-2.149,1.891-3.186,4.111-3.186,2.368,0,4.019.815,4.238,3.13H43.538a1.073,1.073,0,0,0-1.228-.963c-.752,0-1.083.314-1.083.759s.441.649,1.616.8c2.661.332,3.945,1.037,3.945,3.112,0,2.3-1.687,3.335-4.347,3.335Zm11.3,3V12.393a3.325,3.325,0,0,1-3,1.718c-2.23,0-4.054-1.609-4.054-4.954V9.009c0-3.292,1.807-5.05,4.09-5.05a3.124,3.124,0,0,1,2.968,1.627V4.217h3.3V17.125ZM51.813,11.56c1.179,0,1.905-.836,1.905-2.484V8.928c0-1.634-.67-2.505-1.867-2.505s-1.867.836-1.867,2.523v.148c0,1.634.706,2.467,1.831,2.467Zm9.206,2.463c-1.863,0-3.246-1.14-3.246-3.571V4.174h3.3V9.916c0,1.087.423,1.62,1.366,1.62,1,0,1.641-.589,1.641-1.821V4.174h3.3V13.8h-3.3V12.308a3.166,3.166,0,0,1-3.059,1.711Zm9.93.106c-1.726,0-3.25-.85-3.25-2.908,0-2.28,1.909-3.169,5.1-3.169h.917V7.83c0-.925-.219-1.539-1.267-1.539a1.182,1.182,0,0,0-1.3,1.147H68.066c.148-2.332,1.965-3.483,4.587-3.483s4.33,1.094,4.33,3.666V13.9H73.79V12.77a3.145,3.145,0,0,1-2.844,1.351Zm1.2-2.354c.939,0,1.637-.526,1.637-1.344V9.849h-.865c-1.323,0-1.913.254-1.913,1.037C71.009,11.433,71.376,11.775,72.149,11.775Zm9.319,2.354c-2.23,0-4.054-1.606-4.054-4.951V9.03c0-3.289,1.807-5.043,4.09-5.043a3.124,3.124,0,0,1,2.968,1.627V0h3.3V13.907h-3.3v-1.57A3.247,3.247,0,0,1,81.468,14.129Zm1.087-2.569c1.179,0,1.905-.836,1.905-2.484V8.928c0-1.634-.67-2.505-1.867-2.505s-1.867.836-1.867,2.523v.148c0,1.634.706,2.467,1.831,2.467Z" transform="translate(-24.61)" fill="#494b4a"/>
    <path id="Path_16271" data-name="Path 16271" d="M7.491,3.99A21.643,21.643,0,0,0,4.249,5.91C1.98,7.635,0,9.512,0,11.863c0,2.488,1.944,4.524,4.947,4.894.6.074.092.642.092.642s.4-.127.663-.219c.078-.028.208.243.208.243s.243-.279.268-.261a1.559,1.559,0,0,0,.681.261s-.512-.589.127-.674c2.961-.4,4.873-2.417,4.873-4.884S10.374,7.66,7.491,5.8C7.117,5.564,7.079,4.886,7.5,4ZM6.359,6.481a6.53,6.53,0,0,1,2.3,4.845,6.53,6.53,0,0,1-2.3,4.845,7.44,7.44,0,0,0,0-9.69Zm-.879,0a6.53,6.53,0,0,0-2.3,4.845,6.53,6.53,0,0,0,2.3,4.845,7.44,7.44,0,0,1,0-9.69Zm.441,9.524q.175-2.387.173-4.774T5.921,6.457A44.986,44.986,0,0,0,5.921,16.005ZM7.83,7a6.776,6.776,0,0,1,2.759,4.626c.078,1.577-.745,3.095-2.654,4.287C11.3,12.988,10.554,9.759,7.83,7ZM4.012,7a6.776,6.776,0,0,0-2.759,4.626C1.175,13.2,2,14.721,3.906,15.913.54,12.988,1.288,9.759,4.012,7Z" transform="translate(0 -2.582)" fill="#494b4a" fill-rule="evenodd"/>
  </g>
</svg>
