<svg xmlns="http://www.w3.org/2000/svg" width="42" height="42" viewBox="0 0 42 42">
  <g id="ic-sell-event-tickets" transform="translate(-322 -1230)">
    <rect id="Rectangle_4346" data-name="Rectangle 4346" width="42" height="42" rx="21" transform="translate(322 1230)" fill="#19a048" opacity="0.1"/>
    <g id="SVGRepo_iconCarrier" transform="translate(316.998 1224.996)">
      <path id="Path_16401" data-name="Path 16401" d="M35.761,22.894l-1.839-1.839a.833.833,0,0,0-1.125-.042,1.284,1.284,0,0,1-1.737-.067h0a1.284,1.284,0,0,1-.067-1.736.833.833,0,0,0-.042-1.125l-1.841-1.841a.83.83,0,0,0-1.172,0l-2.932,2.931a1.661,1.661,0,0,0-.4.646.321.321,0,0,1-.2.2,1.658,1.658,0,0,0-.646.4l-7.517,7.517a.83.83,0,0,0,0,1.172l1.841,1.839a.833.833,0,0,0,1.125.042,1.279,1.279,0,0,1,1.8,1.8.833.833,0,0,0,.042,1.125l1.839,1.839a.83.83,0,0,0,1.172,0l7.517-7.517a1.659,1.659,0,0,0,.4-.645.32.32,0,0,1,.2-.2,1.66,1.66,0,0,0,.645-.4l2.931-2.932A.83.83,0,0,0,35.761,22.894Zm-9.516-1.236a.667.667,0,0,1-.943,0l-.48-.48a.667.667,0,1,1,.943-.943l.48.479A.667.667,0,0,1,26.245,21.659Zm1.834,1.834a.667.667,0,0,1-.943,0l-.458-.458a.667.667,0,1,1,.943-.943l.458.458a.667.667,0,0,1,0,.944Zm1.833,1.833a.667.667,0,0,1-.943,0l-.458-.458a.667.667,0,1,1,.943-.943l.458.458a.667.667,0,0,1,0,.945Zm1.851,1.856a.667.667,0,0,1-.943,0l-.477-.479a.667.667,0,1,1,.945-.941l.477.479a.667.667,0,0,1,0,.943Z"/>
    </g>
  </g>
</svg>
