<svg xmlns="http://www.w3.org/2000/svg" width="41.385" height="17.125" viewBox="0 0 41.385 17.125">
  <path id="stripe-4" d="M2.908,6.71c0-.446.368-.617.977-.617a6.441,6.441,0,0,1,2.851.732V4.138a7.619,7.619,0,0,0-2.851-.526C1.552,3.612,0,4.824,0,6.848,0,10,4.368,9.5,4.368,10.86c0,.526-.46.7-1.1.7a7.186,7.186,0,0,1-3.138-.915v2.721a8.007,8.007,0,0,0,3.138.652c2.391,0,4.035-1.177,4.035-3.224-.011-3.407-4.391-2.8-4.391-4.081ZM10.68,1.326l-2.8.594-.011,9.157a2.881,2.881,0,0,0,2.977,2.938,4.461,4.461,0,0,0,2.012-.377V11.317c-.368.149-2.184.674-2.184-1.017V6.242h2.184V3.807H10.668Zm5.748,3.327-.184-.846H13.76v10h2.874V7.031a2.035,2.035,0,0,1,2.184-.594V3.807a1.957,1.957,0,0,0-2.391.846Zm3.092-.846h2.885v10H19.52v-10Zm0-.869,2.885-.617V0L19.52.606V2.938Zm8.886.674a3.256,3.256,0,0,0-2.253.892L26,3.8H23.474V17.125l2.874-.606.012-3.235a3.248,3.248,0,0,0,2.035.72c2.058,0,3.932-1.646,3.932-5.27-.011-3.315-1.908-5.121-3.92-5.121Zm-.69,7.876a1.723,1.723,0,0,1-1.356-.537L26.348,6.71a1.716,1.716,0,0,1,1.368-.56c1.046,0,1.77,1.166,1.77,2.664,0,1.532-.713,2.675-1.77,2.675ZM41.385,8.848c0-2.927-1.426-5.236-4.15-5.236s-4.391,2.309-4.391,5.213C32.843,12.266,34.8,14,37.6,14a6.439,6.439,0,0,0,3.184-.743V10.974a6.132,6.132,0,0,1-2.816.629c-1.115,0-2.1-.389-2.23-1.738h5.621c0-.149.023-.743.023-1.017ZM35.706,7.762c0-1.292.793-1.829,1.517-1.829.7,0,1.448.537,1.448,1.829Z" fill="#494b4a"/>
</svg>
